{"title":"Looking In (2003) (Vivid)","uid":6173367,"size":735823872,"categoryP":"porn","categoryS":"movies","magnet":"?xt=urn:btih:e03574cea77db7cca19d155e21446422bc8fb7c4&amp;dn=Looking+In+%282003%29+%28Vivid%29&amp;tr=udp%3A%2F%2Ftracker.openbittorrent.com%3A80&amp;tr=udp%3A%2F%2Fopen.demonii.com%3A1337&amp;tr=udp%3A%2F%2Ftracker.coppersurfer.tk%3A6969&amp;tr=udp%3A%2F%2Fexodus.desync.com%3A6969","seeders":2,"leechers":6,"uploader":"BustyJana","files":-1,"time":1297671767,"description":"Looking In (2003)\n\nStudio (Distributor)\n    Vivid (Vivid)\nCompilation\n    No\nDirector\n    Paul Thomas\n\nStarring: Savanna Samson, Dillon Day, Taylor St. Claire, Steven St. Croix, Ann Marie Rios, Mickey G. Dru Berrymore, Dale DaBone, Brittney Skye, Rafe\n\n    Scene Breakdowns:\n    * Scene 1. Savanna Samson, Dillon Day\n    * Scene 2. Taylor St. Claire, Steven St. Croix\n    * Scene 3. Ann Marie Rios, Mickey G.\n    * Scene 4. Ann Marie Rios, Steven St. Croix\n    * Scene 5. Dru Berrymore, Taylor St. Claire\n    * Scene 6. Ann Marie Rios, Savanna Samson, Steven St. Croix\n    * Scene 7. Dru Berrymore, Taylor St. Claire\n    * Scene 8. Ann Marie Rios, Dale DaBone\n    * Scene 9. Savanna Samson, Mickey G., Steven St. Croix\n    * Scene 10. Taylor St. Claire, Steven St. Croix\n    * Scene 11. Savanna Samson, Dale DaBone\n    * Scene 12. Brittney Skye, Rafe\n\nFormat                           : AVI\nFormat/Info                      : Audio Video Interleave\nFile size                        : 702 MiB\nDuration                         : 1h 46mn\nOverall bit rate                 : 921 Kbps\nWriting application              : Nandub v1.0rc2\nWriting library                  : Nandub build 1853/release\n\nVideo\nID                               : 0\nFormat                           : MPEG-4 Visual\nCodec ID                         : DIV3\nCodec ID/Hint                    : DivX 3 Low\nDuration                         : 1h 46mn\nBit rate                         : 780 Kbps\nWidth                            : 512 pixels\nHeight                           : 384 pixels\nDisplay aspect ratio             : 4:3\nFrame rate                       : 29.970 fps\nColor space                      : YUV\nChroma subsampling               : 4:2:0\nBit depth                        : 8 bits\nBits/(Pixel*Frame)               : 0.132\nStream size                      : 595 MiB (85%)\n\nAudio\nID                               : 1\nFormat                           : MPEG Audio\nFormat version                   : Version 1\nFormat profile                   : Layer 3\nMode                             : Joint stereo\nMode extension                   : MS Stereo\nCodec ID                         : 55\nCodec ID/Hint                    : MP3\nDuration                         : 1h 46mn\nBit rate mode                    : Variable\nBit rate                         : 127 Kbps\nChannel(s)                       : 2 channels\nSampling rate                    : 48.0 KHz\nStream size                      : 96.6 MiB (14%)\nInterleave, duration             : 24 ms (0.72 video frame)\nInterleave, preload duration     : 433 ms\nWriting library                  : LAME3.93a\n\nScreenshot: &lt;a href=&quot;\nhttp://kopimg.com/images/kopi_1297668142449260__upload.all.jpg&quot; rel=&quot;nofollow&quot; target=&quot;_NEW&quot;&gt;\nhttp://kopimg.com/images/kopi_1297668142449260__upload.all.jpg&lt;/a&gt;\n\n\nHappy Valentine's Day, Motherfuckers! &gt;:D\n","torrent":{"xt":"urn:btih:e03574cea77db7cca19d155e21446422bc8fb7c4","amp;dn":"Looking+In+%282003%29+%28Vivid%29","amp;tr":["udp%3A%2F%2Ftracker.openbittorrent.com%3A80","udp%3A%2F%2Fopen.demonii.com%3A1337","udp%3A%2F%2Ftracker.coppersurfer.tk%3A6969","udp%3A%2F%2Fexodus.desync.com%3A6969"],"infoHash":"e03574cea77db7cca19d155e21446422bc8fb7c4","infoHashBuffer":{"type":"Buffer","data":[224,53,116,206,167,125,183,204,161,157,21,94,33,68,100,34,188,143,183,196]},"announce":[],"urlList":[]}}